<svg width="416" height="61" viewBox="0 0 416 61" fill="none" xmlns="http://www.w3.org/2000/svg">
<path d="M414 4.08419C414 4.9263 413.719 5.65612 413.158 6.27367C412.596 6.83507 411.866 7.11577 410.968 7.11577C410.126 7.11577 409.396 6.83507 408.779 6.27367C408.217 5.65612 407.936 4.9263 407.936 4.08419C407.936 3.18595 408.217 2.45612 408.779 1.89472C409.396 1.33332 410.126 1.05261 410.968 1.05261C411.866 1.05261 412.596 1.33332 413.158 1.89472C413.719 2.45612 414 3.18595 414 4.08419ZM382.758 4.08419C382.758 4.9263 382.449 5.65612 381.831 6.27367C381.27 6.83507 380.568 7.11577 379.726 7.11577C378.996 7.11577 378.294 6.83507 377.621 6.27367C377.003 5.65612 376.694 4.9263 376.694 4.08419C376.694 3.18595 377.003 2.45612 377.621 1.89472C378.294 1.33332 378.996 1.05261 379.726 1.05261C380.568 1.05261 381.27 1.33332 381.831 1.89472C382.449 2.45612 382.758 3.18595 382.758 4.08419ZM408.021 11.2421C408.021 12.0281 407.74 12.7298 407.179 13.3474C406.617 13.9088 405.887 14.1895 404.989 14.1895C404.147 14.1895 403.445 13.9088 402.884 13.3474C402.322 12.7298 402.042 12.0281 402.042 11.2421C402.042 10.4 402.322 9.69823 402.884 9.13683C403.445 8.51928 404.147 8.21051 404.989 8.21051C405.887 8.21051 406.617 8.51928 407.179 9.13683C407.74 9.69823 408.021 10.4 408.021 11.2421ZM382.758 12.9263C382.758 13.7684 382.449 14.4982 381.831 15.1158C381.27 15.6772 380.568 15.9579 379.726 15.9579C378.996 15.9579 378.294 15.6772 377.621 15.1158C377.003 14.4982 376.694 13.7684 376.694 12.9263C376.694 12.0281 377.003 11.2982 377.621 10.7368C378.294 10.1754 378.996 9.89472 379.726 9.89472C380.568 9.89472 381.27 10.1754 381.831 10.7368C382.449 11.2982 382.758 12.0281 382.758 12.9263ZM402.042 18.4C402.042 19.2421 401.733 19.9719 401.115 20.5895C400.498 21.1509 399.824 21.4316 399.094 21.4316C398.196 21.4316 397.466 21.1509 396.905 20.5895C396.343 19.9719 396.063 19.2421 396.063 18.4C396.063 17.5579 396.343 16.8561 396.905 16.2947C397.466 15.6772 398.196 15.3684 399.094 15.3684C399.824 15.3684 400.498 15.6772 401.115 16.2947C401.733 16.8561 402.042 17.5579 402.042 18.4ZM382.758 21.7684C382.758 22.6105 382.449 23.3403 381.831 23.9579C381.27 24.5193 380.568 24.8 379.726 24.8C378.996 24.8 378.294 24.5193 377.621 23.9579C377.003 23.3403 376.694 22.6105 376.694 21.7684C376.694 20.9824 377.003 20.3088 377.621 19.7474C378.294 19.1298 378.996 18.821 379.726 18.821C380.568 18.821 381.27 19.1298 381.831 19.7474C382.449 20.3088 382.758 20.9824 382.758 21.7684ZM396.063 25.9789C396.063 26.8772 395.754 27.607 395.136 28.1684C394.575 28.7298 393.873 29.0105 393.031 29.0105C392.133 29.0105 391.403 28.7298 390.842 28.1684C390.28 27.607 390 26.8772 390 25.9789C390 25.1368 390.28 24.4351 390.842 23.8737C391.403 23.3123 392.133 23.0316 393.031 23.0316C393.873 23.0316 394.575 23.3123 395.136 23.8737C395.754 24.4351 396.063 25.1368 396.063 25.9789ZM382.758 30.5263C382.758 31.3684 382.449 32.0982 381.831 32.7158C381.27 33.2772 380.568 33.5579 379.726 33.5579C378.996 33.5579 378.294 33.2772 377.621 32.7158C377.003 32.0982 376.694 31.3684 376.694 30.5263C376.694 29.6842 377.003 28.9824 377.621 28.421C378.294 27.8035 378.996 27.4947 379.726 27.4947C380.568 27.4947 381.27 27.8035 381.831 28.421C382.449 28.9824 382.758 29.6842 382.758 30.5263ZM390.084 33.221C390.084 34.007 389.775 34.7088 389.158 35.3263C388.596 35.9438 387.894 36.2526 387.052 36.2526C386.154 36.2526 385.424 35.9438 384.863 35.3263C384.301 34.7088 384.021 34.007 384.021 33.221C384.021 32.3789 384.301 31.6772 384.863 31.1158C385.424 30.4982 386.154 30.1895 387.052 30.1895C387.894 30.1895 388.596 30.4982 389.158 31.1158C389.775 31.6772 390.084 32.3789 390.084 33.221ZM394.884 33.221C394.884 32.3789 395.165 31.6772 395.726 31.1158C396.287 30.4982 397.017 30.1895 397.915 30.1895C398.645 30.1895 399.319 30.4982 399.936 31.1158C400.554 31.6772 400.863 32.3789 400.863 33.221C400.863 34.007 400.554 34.7088 399.936 35.3263C399.319 35.9438 398.645 36.2526 397.915 36.2526C397.017 36.2526 396.287 35.9438 395.726 35.3263C395.165 34.7088 394.884 34.007 394.884 33.221ZM382.758 39.2842C382.758 40.1263 382.449 40.8561 381.831 41.4737C381.27 42.0351 380.568 42.3158 379.726 42.3158C378.996 42.3158 378.294 42.0351 377.621 41.4737C377.003 40.8561 376.694 40.1263 376.694 39.2842C376.694 38.4421 377.003 37.7403 377.621 37.1789C378.294 36.5614 378.996 36.2526 379.726 36.2526C380.568 36.2526 381.27 36.5614 381.831 37.1789C382.449 37.7403 382.758 38.4421 382.758 39.2842ZM399.515 40.8C399.515 39.9579 399.796 39.2561 400.357 38.6947C400.975 38.0772 401.705 37.7684 402.547 37.7684C403.445 37.7684 404.175 38.0772 404.736 38.6947C405.298 39.2561 405.579 39.9579 405.579 40.8C405.579 41.6982 405.298 42.4281 404.736 42.9895C404.175 43.5509 403.445 43.8316 402.547 43.8316C401.705 43.8316 400.975 43.5509 400.357 42.9895C399.796 42.4281 399.515 41.6982 399.515 40.8ZM382.758 48.1263C382.758 48.9684 382.449 49.6982 381.831 50.3158C381.27 50.8772 380.568 51.1579 379.726 51.1579C378.996 51.1579 378.294 50.8772 377.621 50.3158C377.003 49.6982 376.694 48.9684 376.694 48.1263C376.694 47.2842 377.003 46.5824 377.621 46.021C378.294 45.4035 378.996 45.0947 379.726 45.0947C380.568 45.0947 381.27 45.4035 381.831 46.021C382.449 46.5824 382.758 47.2842 382.758 48.1263ZM404.652 48.9684C404.652 48.0702 404.933 47.3403 405.494 46.7789C406.056 46.2175 406.786 45.9368 407.684 45.9368C408.526 45.9368 409.228 46.2175 409.789 46.7789C410.407 47.3403 410.715 48.0702 410.715 48.9684C410.715 49.8105 410.407 50.5403 409.789 51.1579C409.228 51.7193 408.526 52 407.684 52C406.786 52 406.056 51.7193 405.494 51.1579C404.933 50.5403 404.652 49.8105 404.652 48.9684ZM382.758 56.9684C382.758 57.8105 382.449 58.5403 381.831 59.1579C381.27 59.7193 380.568 60 379.726 60C378.996 60 378.294 59.7193 377.621 59.1579C377.003 58.5403 376.694 57.8105 376.694 56.9684C376.694 56.2386 377.003 55.5649 377.621 54.9473C378.294 54.3298 378.996 54.021 379.726 54.021C380.568 54.021 381.27 54.3298 381.831 54.9473C382.449 55.5649 382.758 56.2386 382.758 56.9684ZM409.789 56.9684C409.789 56.2386 410.07 55.5649 410.631 54.9473C411.193 54.3298 411.922 54.021 412.821 54.021C413.55 54.021 414.224 54.3298 414.842 54.9473C415.515 55.5649 415.852 56.2386 415.852 56.9684C415.852 57.8105 415.515 58.5403 414.842 59.1579C414.224 59.7193 413.55 60 412.821 60C411.922 60 411.193 59.7193 410.631 59.1579C410.07 58.5403 409.789 57.8105 409.789 56.9684Z" fill="black"/>
<path d="M324.369 4.08419C324.369 4.9263 324.088 5.65612 323.527 6.27367C322.965 6.83507 322.235 7.11577 321.337 7.11577C320.495 7.11577 319.765 6.83507 319.148 6.27367C318.586 5.65612 318.306 4.9263 318.306 4.08419C318.306 3.18595 318.586 2.45612 319.148 1.89472C319.765 1.33332 320.495 1.05261 321.337 1.05261C322.235 1.05261 322.965 1.33332 323.527 1.89472C324.088 2.45612 324.369 3.18595 324.369 4.08419ZM332.706 4.08419C332.706 4.9263 332.425 5.65612 331.864 6.27367C331.302 6.83507 330.572 7.11577 329.674 7.11577C328.832 7.11577 328.102 6.83507 327.485 6.27367C326.923 5.65612 326.643 4.9263 326.643 4.08419C326.643 3.18595 326.923 2.45612 327.485 1.89472C328.102 1.33332 328.832 1.05261 329.674 1.05261C330.572 1.05261 331.302 1.33332 331.864 1.89472C332.425 2.45612 332.706 3.18595 332.706 4.08419ZM353.758 4.08419C353.758 3.18595 354.039 2.45612 354.6 1.89472C355.218 1.33332 355.948 1.05261 356.79 1.05261C357.688 1.05261 358.418 1.33332 358.979 1.89472C359.541 2.45612 359.821 3.18595 359.821 4.08419C359.821 4.9263 359.541 5.65612 358.979 6.27367C358.418 6.83507 357.688 7.11577 356.79 7.11577C355.948 7.11577 355.218 6.83507 354.6 6.27367C354.039 5.65612 353.758 4.9263 353.758 4.08419ZM324.369 12.9263C324.369 13.7684 324.088 14.4982 323.527 15.1158C322.965 15.6772 322.235 15.9579 321.337 15.9579C320.495 15.9579 319.765 15.6772 319.148 15.1158C318.586 14.4982 318.306 13.7684 318.306 12.9263C318.306 12.0281 318.586 11.2982 319.148 10.7368C319.765 10.1754 320.495 9.89472 321.337 9.89472C322.235 9.89472 322.965 10.1754 323.527 10.7368C324.088 11.2982 324.369 12.0281 324.369 12.9263ZM335.821 12.9263C335.821 13.7684 335.541 14.4982 334.979 15.1158C334.418 15.6772 333.688 15.9579 332.79 15.9579C331.948 15.9579 331.218 15.6772 330.6 15.1158C330.039 14.4982 329.758 13.7684 329.758 12.9263C329.758 12.0281 330.039 11.2982 330.6 10.7368C331.218 10.1754 331.948 9.89472 332.79 9.89472C333.688 9.89472 334.418 10.1754 334.979 10.7368C335.541 11.2982 335.821 12.0281 335.821 12.9263ZM353.758 12.9263C353.758 12.0281 354.039 11.2982 354.6 10.7368C355.218 10.1754 355.948 9.89472 356.79 9.89472C357.688 9.89472 358.418 10.1754 358.979 10.7368C359.541 11.2982 359.821 12.0281 359.821 12.9263C359.821 13.7684 359.541 14.4982 358.979 15.1158C358.418 15.6772 357.688 15.9579 356.79 15.9579C355.948 15.9579 355.218 15.6772 354.6 15.1158C354.039 14.4982 353.758 13.7684 353.758 12.9263ZM353.758 21.7684C353.758 20.9824 354.039 20.2807 354.6 19.6631C355.218 19.0456 355.948 18.7368 356.79 18.7368C357.688 18.7368 358.418 19.0456 358.979 19.6631C359.541 20.2807 359.821 20.9824 359.821 21.7684C359.821 22.6105 359.541 23.3403 358.979 23.9579C358.418 24.5193 357.688 24.8 356.79 24.8C355.948 24.8 355.218 24.5193 354.6 23.9579C354.039 23.3403 353.758 22.6105 353.758 21.7684ZM324.369 21.7684C324.369 22.6105 324.088 23.3403 323.527 23.9579C322.965 24.5193 322.235 24.8 321.337 24.8C320.495 24.8 319.765 24.5193 319.148 23.9579C318.586 23.3403 318.306 22.6105 318.306 21.7684C318.306 20.9824 318.586 20.3088 319.148 19.7474C319.765 19.1298 320.495 18.821 321.337 18.821C322.235 18.821 322.965 19.1298 323.527 19.7474C324.088 20.3088 324.369 20.9824 324.369 21.7684ZM338.937 21.7684C338.937 22.6105 338.657 23.3403 338.095 23.9579C337.534 24.5193 336.804 24.8 335.906 24.8C335.064 24.8 334.334 24.5193 333.716 23.9579C333.155 23.3403 332.874 22.6105 332.874 21.7684C332.874 20.9824 333.155 20.3088 333.716 19.7474C334.334 19.1298 335.064 18.821 335.906 18.821C336.804 18.821 337.534 19.1298 338.095 19.7474C338.657 20.3088 338.937 20.9824 338.937 21.7684ZM324.369 30.5263C324.369 31.3684 324.088 32.0982 323.527 32.7158C322.965 33.2772 322.235 33.5579 321.337 33.5579C320.495 33.5579 319.765 33.2772 319.148 32.7158C318.586 32.0982 318.306 31.3684 318.306 30.5263C318.306 29.6842 318.586 28.9824 319.148 28.421C319.765 27.8035 320.495 27.4947 321.337 27.4947C322.235 27.4947 322.965 27.8035 323.527 28.421C324.088 28.9824 324.369 29.6842 324.369 30.5263ZM342.053 30.5263C342.053 31.3684 341.772 32.0982 341.211 32.7158C340.65 33.2772 339.92 33.5579 339.021 33.5579C338.292 33.5579 337.618 33.2772 337 32.7158C336.383 32.0982 336.074 31.3684 336.074 30.5263C336.074 29.6842 336.383 28.9824 337 28.421C337.618 27.8035 338.292 27.4947 339.021 27.4947C339.92 27.4947 340.65 27.8035 341.211 28.421C341.772 28.9824 342.053 29.6842 342.053 30.5263ZM353.758 30.5263C353.758 29.6842 354.039 28.9824 354.6 28.421C355.218 27.8035 355.948 27.4947 356.79 27.4947C357.688 27.4947 358.418 27.8035 358.979 28.421C359.541 28.9824 359.821 29.6842 359.821 30.5263C359.821 31.3684 359.541 32.0982 358.979 32.7158C358.418 33.2772 357.688 33.5579 356.79 33.5579C355.948 33.5579 355.218 33.2772 354.6 32.7158C354.039 32.0982 353.758 31.3684 353.758 30.5263ZM324.369 39.2842C324.369 40.1263 324.088 40.8561 323.527 41.4737C322.965 42.0351 322.235 42.3158 321.337 42.3158C320.495 42.3158 319.765 42.0351 319.148 41.4737C318.586 40.8561 318.306 40.1263 318.306 39.2842C318.306 38.4421 318.586 37.7403 319.148 37.1789C319.765 36.5614 320.495 36.2526 321.337 36.2526C322.235 36.2526 322.965 36.5614 323.527 37.1789C324.088 37.7403 324.369 38.4421 324.369 39.2842ZM353.758 39.2842C353.758 38.4421 354.039 37.7403 354.6 37.1789C355.218 36.5614 355.948 36.2526 356.79 36.2526C357.688 36.2526 358.418 36.5614 358.979 37.1789C359.541 37.7403 359.821 38.4421 359.821 39.2842C359.821 40.1263 359.541 40.8561 358.979 41.4737C358.418 42.0351 357.688 42.3158 356.79 42.3158C355.948 42.3158 355.218 42.0351 354.6 41.4737C354.039 40.8561 353.758 40.1263 353.758 39.2842ZM339.19 39.2842C339.19 38.4421 339.471 37.7403 340.032 37.1789C340.65 36.5614 341.379 36.2526 342.221 36.2526C343.12 36.2526 343.85 36.5614 344.411 37.1789C344.972 37.7403 345.253 38.4421 345.253 39.2842C345.253 40.1263 344.972 40.8561 344.411 41.4737C343.85 42.0351 343.12 42.3158 342.221 42.3158C341.379 42.3158 340.65 42.0351 340.032 41.4737C339.471 40.8561 339.19 40.1263 339.19 39.2842ZM324.369 48.1263C324.369 48.9684 324.088 49.6982 323.527 50.3158C322.965 50.8772 322.235 51.1579 321.337 51.1579C320.495 51.1579 319.765 50.8772 319.148 50.3158C318.586 49.6982 318.306 48.9684 318.306 48.1263C318.306 47.2842 318.586 46.5824 319.148 46.021C319.765 45.4035 320.495 45.0947 321.337 45.0947C322.235 45.0947 322.965 45.4035 323.527 46.021C324.088 46.5824 324.369 47.2842 324.369 48.1263ZM353.758 48.1263C353.758 47.2842 354.039 46.5824 354.6 46.021C355.218 45.4035 355.948 45.0947 356.79 45.0947C357.688 45.0947 358.418 45.4035 358.979 46.021C359.541 46.5824 359.821 47.2842 359.821 48.1263C359.821 48.9684 359.541 49.6982 358.979 50.3158C358.418 50.8772 357.688 51.1579 356.79 51.1579C355.948 51.1579 355.218 50.8772 354.6 50.3158C354.039 49.6982 353.758 48.9684 353.758 48.1263ZM342.306 48.1263C342.306 47.2842 342.586 46.5824 343.148 46.021C343.765 45.4035 344.495 45.0947 345.337 45.0947C346.235 45.0947 346.965 45.4035 347.527 46.021C348.088 46.5824 348.369 47.2842 348.369 48.1263C348.369 48.9684 348.088 49.6982 347.527 50.3158C346.965 50.8772 346.235 51.1579 345.337 51.1579C344.495 51.1579 343.765 50.8772 343.148 50.3158C342.586 49.6982 342.306 48.9684 342.306 48.1263ZM324.369 56.9684C324.369 57.8105 324.088 58.5403 323.527 59.1579C322.965 59.7193 322.235 60 321.337 60C320.495 60 319.765 59.7193 319.148 59.1579C318.586 58.5403 318.306 57.8105 318.306 56.9684C318.306 56.2386 318.586 55.5649 319.148 54.9473C319.765 54.2737 320.495 53.9368 321.337 53.9368C322.235 53.9368 322.965 54.2737 323.527 54.9473C324.088 55.5649 324.369 56.2386 324.369 56.9684ZM353.758 56.9684C353.758 56.2386 354.039 55.5649 354.6 54.9473C355.218 54.2737 355.948 53.9368 356.79 53.9368C357.688 53.9368 358.418 54.2737 358.979 54.9473C359.541 55.5649 359.821 56.2386 359.821 56.9684C359.821 57.8105 359.541 58.5403 358.979 59.1579C358.418 59.7193 357.688 60 356.79 60C355.948 60 355.218 59.7193 354.6 59.1579C354.039 58.5403 353.758 57.8105 353.758 56.9684ZM345.421 56.9684C345.421 56.2386 345.702 55.5649 346.264 54.9473C346.881 54.2737 347.611 53.9368 348.453 53.9368C349.295 53.9368 349.997 54.2737 350.558 54.9473C351.176 55.5649 351.485 56.2386 351.485 56.9684C351.485 57.8105 351.176 58.5403 350.558 59.1579C349.997 59.7193 349.295 60 348.453 60C347.611 60 346.881 59.7193 346.264 59.1579C345.702 58.5403 345.421 57.8105 345.421 56.9684Z" fill="black"/>
<path d="M282.741 4.08419C282.741 4.9263 282.461 5.65612 281.899 6.27367C281.338 6.83507 280.608 7.11577 279.71 7.11577C278.868 7.11577 278.138 6.83507 277.52 6.27367C276.959 5.65612 276.678 4.9263 276.678 4.08419C276.678 3.18595 276.959 2.45612 277.52 1.89472C278.138 1.33332 278.868 1.05261 279.71 1.05261C280.608 1.05261 281.338 1.33332 281.899 1.89472C282.461 2.45612 282.741 3.18595 282.741 4.08419ZM291.499 4.08419C291.499 4.9263 291.19 5.65612 290.573 6.27367C290.011 6.83507 289.338 7.11577 288.552 7.11577C287.71 7.11577 286.98 6.83507 286.362 6.27367C285.801 5.65612 285.52 4.9263 285.52 4.08419C285.52 3.18595 285.801 2.45612 286.362 1.89472C286.98 1.33332 287.71 1.05261 288.552 1.05261C289.338 1.05261 290.011 1.33332 290.573 1.89472C291.19 2.45612 291.499 3.18595 291.499 4.08419ZM280.552 12.9263C280.552 13.7684 280.243 14.4982 279.625 15.1158C279.064 15.6772 278.362 15.9579 277.52 15.9579C276.678 15.9579 275.948 15.6772 275.331 15.1158C274.769 14.4982 274.489 13.7684 274.489 12.9263C274.489 12.1403 274.769 11.4667 275.331 10.9052C275.948 10.2877 276.678 9.97893 277.52 9.97893C278.362 9.97893 279.064 10.2877 279.625 10.9052C280.243 11.4667 280.552 12.1403 280.552 12.9263ZM293.773 12.9263C293.773 13.7684 293.464 14.4982 292.846 15.1158C292.285 15.6772 291.583 15.9579 290.741 15.9579C289.955 15.9579 289.253 15.6772 288.636 15.1158C288.075 14.4982 287.794 13.7684 287.794 12.9263C287.794 12.1403 288.075 11.4667 288.636 10.9052C289.253 10.2877 289.955 9.97893 290.741 9.97893C291.583 9.97893 292.285 10.2877 292.846 10.9052C293.464 11.4667 293.773 12.1403 293.773 12.9263ZM278.362 21.7684C278.362 22.6105 278.054 23.3403 277.436 23.9579C276.875 24.5193 276.173 24.8 275.331 24.8C274.432 24.8 273.703 24.5193 273.141 23.9579C272.58 23.3403 272.299 22.6105 272.299 21.7684C272.299 20.8702 272.58 20.1403 273.141 19.5789C273.703 19.0175 274.432 18.7368 275.331 18.7368C276.173 18.7368 276.875 19.0175 277.436 19.5789C278.054 20.1403 278.362 20.8702 278.362 21.7684ZM295.962 21.7684C295.962 22.6105 295.654 23.3403 295.036 23.9579C294.475 24.5193 293.773 24.8 292.931 24.8C292.145 24.8 291.443 24.5193 290.825 23.9579C290.208 23.3403 289.899 22.6105 289.899 21.7684C289.899 20.8702 290.208 20.1403 290.825 19.5789C291.443 19.0175 292.145 18.7368 292.931 18.7368C293.773 18.7368 294.475 19.0175 295.036 19.5789C295.654 20.1403 295.962 20.8702 295.962 21.7684ZM276.173 30.5263C276.173 31.3684 275.864 32.0982 275.246 32.7158C274.685 33.2772 273.983 33.5579 273.141 33.5579C272.243 33.5579 271.513 33.2772 270.952 32.7158C270.39 32.0982 270.11 31.3684 270.11 30.5263C270.11 29.6842 270.39 28.9824 270.952 28.421C271.513 27.8035 272.243 27.4947 273.141 27.4947C273.983 27.4947 274.685 27.8035 275.246 28.421C275.864 28.9824 276.173 29.6842 276.173 30.5263ZM298.152 30.5263C298.152 31.3684 297.871 32.0982 297.31 32.7158C296.748 33.2772 296.018 33.5579 295.12 33.5579C294.278 33.5579 293.548 33.2772 292.931 32.7158C292.369 32.0982 292.089 31.3684 292.089 30.5263C292.089 29.6842 292.369 28.9824 292.931 28.421C293.548 27.8035 294.278 27.4947 295.12 27.4947C296.018 27.4947 296.748 27.8035 297.31 28.421C297.871 28.9824 298.152 29.6842 298.152 30.5263ZM282.741 39.3684C282.741 40.0982 282.461 40.7719 281.899 41.3895C281.338 42.007 280.608 42.3158 279.71 42.3158C278.868 42.3158 278.138 42.007 277.52 41.3895C276.959 40.7719 276.678 40.0982 276.678 39.3684C276.678 38.5263 276.959 37.8245 277.52 37.2631C278.138 36.6456 278.868 36.3368 279.71 36.3368C280.608 36.3368 281.338 36.6456 281.899 37.2631C282.461 37.8245 282.741 38.5263 282.741 39.3684ZM291.583 39.3684C291.583 40.0982 291.275 40.7719 290.657 41.3895C290.039 42.007 289.338 42.3158 288.552 42.3158C287.71 42.3158 286.98 42.007 286.362 41.3895C285.801 40.7719 285.52 40.0982 285.52 39.3684C285.52 38.5263 285.801 37.8245 286.362 37.2631C286.98 36.6456 287.71 36.3368 288.552 36.3368C289.338 36.3368 290.039 36.6456 290.657 37.2631C291.275 37.8245 291.583 38.5263 291.583 39.3684ZM273.899 39.3684C273.899 40.0982 273.618 40.7719 273.057 41.3895C272.496 42.007 271.766 42.3158 270.868 42.3158C270.025 42.3158 269.296 42.007 268.678 41.3895C268.117 40.7719 267.836 40.0982 267.836 39.3684C267.836 38.5263 268.117 37.8245 268.678 37.2631C269.296 36.6456 270.025 36.3368 270.868 36.3368C271.766 36.3368 272.496 36.6456 273.057 37.2631C273.618 37.8245 273.899 38.5263 273.899 39.3684ZM300.341 39.3684C300.341 40.0982 300.061 40.7719 299.499 41.3895C298.938 42.007 298.208 42.3158 297.31 42.3158C296.468 42.3158 295.738 42.007 295.12 41.3895C294.559 40.7719 294.278 40.0982 294.278 39.3684C294.278 38.5263 294.559 37.8245 295.12 37.2631C295.738 36.6456 296.468 36.3368 297.31 36.3368C298.208 36.3368 298.938 36.6456 299.499 37.2631C300.061 37.8245 300.341 38.5263 300.341 39.3684ZM271.71 48.1263C271.71 48.9684 271.401 49.6982 270.783 50.3158C270.222 50.8772 269.52 51.1579 268.678 51.1579C267.836 51.1579 267.106 50.8772 266.489 50.3158C265.927 49.6982 265.646 48.9684 265.646 48.1263C265.646 47.2842 265.927 46.5824 266.489 46.021C267.106 45.4035 267.836 45.0947 268.678 45.0947C269.52 45.0947 270.222 45.4035 270.783 46.021C271.401 46.5824 271.71 47.2842 271.71 48.1263ZM302.615 48.1263C302.615 48.9684 302.306 49.6982 301.689 50.3158C301.127 50.8772 300.425 51.1579 299.583 51.1579C298.685 51.1579 297.955 50.8772 297.394 50.3158C296.832 49.6982 296.552 48.9684 296.552 48.1263C296.552 47.2842 296.832 46.5824 297.394 46.021C297.955 45.4035 298.685 45.0947 299.583 45.0947C300.425 45.0947 301.127 45.4035 301.689 46.021C302.306 46.5824 302.615 47.2842 302.615 48.1263ZM269.52 56.9684C269.52 57.8105 269.211 58.5403 268.594 59.1579C268.032 59.7193 267.331 60 266.489 60C265.703 60 265.001 59.7193 264.383 59.1579C263.766 58.5403 263.457 57.8105 263.457 56.9684C263.457 56.1263 263.766 55.4245 264.383 54.8631C265.001 54.2456 265.703 53.9368 266.489 53.9368C267.331 53.9368 268.032 54.2456 268.594 54.8631C269.211 55.4245 269.52 56.1263 269.52 56.9684ZM304.804 56.9684C304.804 57.8105 304.496 58.5403 303.878 59.1579C303.317 59.7193 302.615 60 301.773 60C300.875 60 300.145 59.7193 299.583 59.1579C299.022 58.5403 298.741 57.8105 298.741 56.9684C298.741 56.1263 299.022 55.4245 299.583 54.8631C300.145 54.2456 300.875 53.9368 301.773 53.9368C302.615 53.9368 303.317 54.2456 303.878 54.8631C304.496 55.4245 304.804 56.1263 304.804 56.9684Z" fill="black"/>
<path d="M230.826 3.9158C230.826 4.7579 230.517 5.48772 229.9 6.10527C229.338 6.66667 228.637 6.94737 227.795 6.94737C226.896 6.94737 226.167 6.66667 225.605 6.10527C225.044 5.48772 224.763 4.7579 224.763 3.9158C224.763 3.07369 225.044 2.37193 225.605 1.81053C226.167 1.19299 226.896 0.884216 227.795 0.884216C228.637 0.884216 229.338 1.19299 229.9 1.81053C230.517 2.37193 230.826 3.07369 230.826 3.9158ZM221.984 4.08422C221.984 4.92632 221.675 5.65615 221.058 6.27369C220.496 6.83509 219.795 7.1158 218.952 7.1158C218.054 7.1158 217.324 6.83509 216.763 6.27369C216.202 5.65615 215.921 4.92632 215.921 4.08422C215.921 3.18597 216.202 2.45615 216.763 1.89474C217.324 1.33334 218.054 1.05264 218.952 1.05264C219.795 1.05264 220.496 1.33334 221.058 1.89474C221.675 2.45615 221.984 3.18597 221.984 4.08422ZM239.668 4.33685C239.668 5.17895 239.36 5.90878 238.742 6.52632C238.181 7.08773 237.479 7.36843 236.637 7.36843C235.738 7.36843 235.009 7.08773 234.447 6.52632C233.886 5.90878 233.605 5.17895 233.605 4.33685C233.605 3.4386 233.886 2.70878 234.447 2.14737C235.009 1.58597 235.738 1.30527 236.637 1.30527C237.479 1.30527 238.181 1.58597 238.742 2.14737C239.36 2.70878 239.668 3.4386 239.668 4.33685ZM247.584 7.9579C247.584 8.80001 247.303 9.52983 246.742 10.1474C246.181 10.7088 245.451 10.9895 244.552 10.9895C243.71 10.9895 242.981 10.7088 242.363 10.1474C241.802 9.52983 241.521 8.80001 241.521 7.9579C241.521 7.05966 241.802 6.32983 242.363 5.76842C242.981 5.20702 243.71 4.92632 244.552 4.92632C245.451 4.92632 246.181 5.20702 246.742 5.76842C247.303 6.32983 247.584 7.05966 247.584 7.9579ZM221.984 12.9263C221.984 13.7684 221.675 14.4982 221.058 15.1158C220.496 15.6772 219.795 15.9579 218.952 15.9579C218.054 15.9579 217.324 15.6772 216.763 15.1158C216.202 14.4982 215.921 13.7684 215.921 12.9263C215.921 12.0281 216.202 11.2982 216.763 10.7368C217.324 10.1754 218.054 9.89474 218.952 9.89474C219.795 9.89474 220.496 10.1754 221.058 10.7368C221.675 11.2982 221.984 12.0281 221.984 12.9263ZM252.047 15.1158C252.047 16.014 251.738 16.7439 251.121 17.3053C250.56 17.8667 249.858 18.1474 249.016 18.1474C248.117 18.1474 247.388 17.8667 246.826 17.3053C246.265 16.7439 245.984 16.014 245.984 15.1158C245.984 14.2737 246.265 13.5719 246.826 13.0105C247.388 12.393 248.117 12.0842 249.016 12.0842C249.858 12.0842 250.56 12.393 251.121 13.0105C251.738 13.5719 252.047 14.2737 252.047 15.1158ZM221.984 21.7684C221.984 22.6105 221.675 23.3404 221.058 23.9579C220.496 24.5193 219.795 24.8 218.952 24.8C218.054 24.8 217.324 24.5193 216.763 23.9579C216.202 23.3404 215.921 22.6105 215.921 21.7684C215.921 20.8702 216.202 20.1404 216.763 19.579C217.324 19.0175 218.054 18.7369 218.952 18.7369C219.795 18.7369 220.496 19.0175 221.058 19.579C221.675 20.1404 221.984 20.8702 221.984 21.7684ZM252.047 23.9579C252.047 24.8561 251.738 25.586 251.121 26.1474C250.56 26.7088 249.858 26.9895 249.016 26.9895C248.117 26.9895 247.388 26.7088 246.826 26.1474C246.265 25.586 245.984 24.8561 245.984 23.9579C245.984 23.1158 246.265 22.414 246.826 21.8526C247.388 21.2351 248.117 20.9263 249.016 20.9263C249.858 20.9263 250.56 21.2351 251.121 21.8526C251.738 22.414 252.047 23.1158 252.047 23.9579ZM221.984 30.5263C221.984 31.3684 221.675 32.0983 221.058 32.7158C220.496 33.2772 219.795 33.5579 218.952 33.5579C218.054 33.5579 217.324 33.2772 216.763 32.7158C216.202 32.0983 215.921 31.3684 215.921 30.5263C215.921 29.6842 216.202 28.9825 216.763 28.4211C217.324 27.8035 218.054 27.4947 218.952 27.4947C219.795 27.4947 220.496 27.8035 221.058 28.4211C221.675 28.9825 221.984 29.6842 221.984 30.5263ZM247.584 31.6211C247.584 32.4632 247.303 33.193 246.742 33.8105C246.181 34.3719 245.451 34.6526 244.552 34.6526C243.71 34.6526 242.981 34.3719 242.363 33.8105C241.802 33.193 241.521 32.4632 241.521 31.6211C241.521 30.7228 241.802 29.993 242.363 29.4316C242.981 28.8702 243.71 28.5895 244.552 28.5895C245.451 28.5895 246.181 28.8702 246.742 29.4316C247.303 29.993 247.584 30.7228 247.584 31.6211ZM239.668 34.9053C239.668 35.8035 239.36 36.5333 238.742 37.0947C238.181 37.6561 237.479 37.9368 236.637 37.9368C235.738 37.9368 235.009 37.6561 234.447 37.0947C233.886 36.5333 233.605 35.8035 233.605 34.9053C233.605 34.0632 233.886 33.3614 234.447 32.8C235.009 32.1825 235.738 31.8737 236.637 31.8737C237.479 31.8737 238.181 32.1825 238.742 32.8C239.36 33.3614 239.668 34.0632 239.668 34.9053ZM230.826 34.9895C230.826 35.8877 230.517 36.6175 229.9 37.179C229.338 37.7404 228.637 38.0211 227.795 38.0211C226.896 38.0211 226.167 37.7404 225.605 37.179C225.044 36.6175 224.763 35.8877 224.763 34.9895C224.763 34.1474 225.044 33.4456 225.605 32.8842C226.167 32.2667 226.896 31.9579 227.795 31.9579C228.637 31.9579 229.338 32.2667 229.9 32.8842C230.517 33.4456 230.826 34.1474 230.826 34.9895ZM221.984 39.2842C221.984 40.1263 221.675 40.8561 221.058 41.4737C220.496 42.0351 219.795 42.3158 218.952 42.3158C218.054 42.3158 217.324 42.0351 216.763 41.4737C216.202 40.8561 215.921 40.1263 215.921 39.2842C215.921 38.4421 216.202 37.7404 216.763 37.179C217.324 36.5614 218.054 36.2526 218.952 36.2526C219.795 36.2526 220.496 36.5614 221.058 37.179C221.675 37.7404 221.984 38.4421 221.984 39.2842ZM243.71 42.0632C243.71 42.9053 243.43 43.6351 242.868 44.2526C242.307 44.814 241.577 45.0947 240.679 45.0947C239.837 45.0947 239.107 44.814 238.489 44.2526C237.928 43.6351 237.647 42.9053 237.647 42.0632C237.647 41.2211 237.928 40.5193 238.489 39.9579C239.107 39.3404 239.837 39.0316 240.679 39.0316C241.577 39.0316 242.307 39.3404 242.868 39.9579C243.43 40.5193 243.71 41.2211 243.71 42.0632ZM221.984 48.1263C221.984 48.9684 221.675 49.6983 221.058 50.3158C220.496 50.8772 219.795 51.1579 218.952 51.1579C218.054 51.1579 217.324 50.8772 216.763 50.3158C216.202 49.6983 215.921 48.9684 215.921 48.1263C215.921 47.2842 216.202 46.5825 216.763 46.0211C217.324 45.4035 218.054 45.0947 218.952 45.0947C219.795 45.0947 220.496 45.4035 221.058 46.0211C221.675 46.5825 221.984 47.2842 221.984 48.1263ZM247.921 49.3053C247.921 50.1474 247.612 50.8772 246.995 51.4947C246.433 52.0561 245.731 52.3369 244.889 52.3369C244.047 52.3369 243.317 52.0561 242.7 51.4947C242.138 50.8772 241.858 50.1474 241.858 49.3053C241.858 48.407 242.138 47.6772 242.7 47.1158C243.317 46.5544 244.047 46.2737 244.889 46.2737C245.731 46.2737 246.433 46.5544 246.995 47.1158C247.612 47.6772 247.921 48.407 247.921 49.3053ZM221.984 56.9684C221.984 57.8105 221.675 58.5404 221.058 59.1579C220.496 59.7193 219.795 60 218.952 60C218.054 60 217.324 59.7193 216.763 59.1579C216.202 58.5404 215.921 57.8105 215.921 56.9684C215.921 56.1263 216.202 55.4246 216.763 54.8632C217.324 54.2456 218.054 53.9369 218.952 53.9369C219.795 53.9369 220.496 54.2456 221.058 54.8632C221.675 55.4246 221.984 56.1263 221.984 56.9684ZM252.468 56.9684C252.468 57.8105 252.188 58.5404 251.626 59.1579C251.065 59.7193 250.335 60 249.437 60C248.595 60 247.893 59.7193 247.331 59.1579C246.77 58.5404 246.489 57.8105 246.489 56.9684C246.489 56.1263 246.77 55.4246 247.331 54.8632C247.893 54.2456 248.595 53.9369 249.437 53.9369C250.335 53.9369 251.065 54.2456 251.626 54.8632C252.188 55.4246 252.468 56.1263 252.468 56.9684Z" fill="black"/>
<path d="M163.596 4.08419C163.596 4.9263 163.316 5.65612 162.754 6.27367C162.193 6.83507 161.463 7.11577 160.565 7.11577C159.723 7.11577 158.993 6.83507 158.375 6.27367C157.814 5.65612 157.533 4.9263 157.533 4.08419C157.533 3.18595 157.814 2.45612 158.375 1.89472C158.993 1.33332 159.723 1.05261 160.565 1.05261C161.463 1.05261 162.193 1.33332 162.754 1.89472C163.316 2.45612 163.596 3.18595 163.596 4.08419ZM171.933 4.08419C171.933 4.9263 171.652 5.65612 171.091 6.27367C170.53 6.83507 169.8 7.11577 168.902 7.11577C168.06 7.11577 167.33 6.83507 166.712 6.27367C166.151 5.65612 165.87 4.9263 165.87 4.08419C165.87 3.18595 166.151 2.45612 166.712 1.89472C167.33 1.33332 168.06 1.05261 168.902 1.05261C169.8 1.05261 170.53 1.33332 171.091 1.89472C171.652 2.45612 171.933 3.18595 171.933 4.08419ZM192.986 4.08419C192.986 3.18595 193.267 2.45612 193.828 1.89472C194.445 1.33332 195.175 1.05261 196.017 1.05261C196.916 1.05261 197.645 1.33332 198.207 1.89472C198.768 2.45612 199.049 3.18595 199.049 4.08419C199.049 4.9263 198.768 5.65612 198.207 6.27367C197.645 6.83507 196.916 7.11577 196.017 7.11577C195.175 7.11577 194.445 6.83507 193.828 6.27367C193.267 5.65612 192.986 4.9263 192.986 4.08419ZM163.596 12.9263C163.596 13.7684 163.316 14.4982 162.754 15.1158C162.193 15.6772 161.463 15.9579 160.565 15.9579C159.723 15.9579 158.993 15.6772 158.375 15.1158C157.814 14.4982 157.533 13.7684 157.533 12.9263C157.533 12.0281 157.814 11.2982 158.375 10.7368C158.993 10.1754 159.723 9.89472 160.565 9.89472C161.463 9.89472 162.193 10.1754 162.754 10.7368C163.316 11.2982 163.596 12.0281 163.596 12.9263ZM175.049 12.9263C175.049 13.7684 174.768 14.4982 174.207 15.1158C173.645 15.6772 172.916 15.9579 172.017 15.9579C171.175 15.9579 170.445 15.6772 169.828 15.1158C169.267 14.4982 168.986 13.7684 168.986 12.9263C168.986 12.0281 169.267 11.2982 169.828 10.7368C170.445 10.1754 171.175 9.89472 172.017 9.89472C172.916 9.89472 173.645 10.1754 174.207 10.7368C174.768 11.2982 175.049 12.0281 175.049 12.9263ZM192.986 12.9263C192.986 12.0281 193.267 11.2982 193.828 10.7368C194.445 10.1754 195.175 9.89472 196.017 9.89472C196.916 9.89472 197.645 10.1754 198.207 10.7368C198.768 11.2982 199.049 12.0281 199.049 12.9263C199.049 13.7684 198.768 14.4982 198.207 15.1158C197.645 15.6772 196.916 15.9579 196.017 15.9579C195.175 15.9579 194.445 15.6772 193.828 15.1158C193.267 14.4982 192.986 13.7684 192.986 12.9263ZM192.986 21.7684C192.986 20.9824 193.267 20.2807 193.828 19.6631C194.445 19.0456 195.175 18.7368 196.017 18.7368C196.916 18.7368 197.645 19.0456 198.207 19.6631C198.768 20.2807 199.049 20.9824 199.049 21.7684C199.049 22.6105 198.768 23.3403 198.207 23.9579C197.645 24.5193 196.916 24.8 196.017 24.8C195.175 24.8 194.445 24.5193 193.828 23.9579C193.267 23.3403 192.986 22.6105 192.986 21.7684ZM163.596 21.7684C163.596 22.6105 163.316 23.3403 162.754 23.9579C162.193 24.5193 161.463 24.8 160.565 24.8C159.723 24.8 158.993 24.5193 158.375 23.9579C157.814 23.3403 157.533 22.6105 157.533 21.7684C157.533 20.9824 157.814 20.3088 158.375 19.7474C158.993 19.1298 159.723 18.821 160.565 18.821C161.463 18.821 162.193 19.1298 162.754 19.7474C163.316 20.3088 163.596 20.9824 163.596 21.7684ZM178.165 21.7684C178.165 22.6105 177.884 23.3403 177.323 23.9579C176.761 24.5193 176.031 24.8 175.133 24.8C174.291 24.8 173.561 24.5193 172.944 23.9579C172.382 23.3403 172.102 22.6105 172.102 21.7684C172.102 20.9824 172.382 20.3088 172.944 19.7474C173.561 19.1298 174.291 18.821 175.133 18.821C176.031 18.821 176.761 19.1298 177.323 19.7474C177.884 20.3088 178.165 20.9824 178.165 21.7684ZM163.596 30.5263C163.596 31.3684 163.316 32.0982 162.754 32.7158C162.193 33.2772 161.463 33.5579 160.565 33.5579C159.723 33.5579 158.993 33.2772 158.375 32.7158C157.814 32.0982 157.533 31.3684 157.533 30.5263C157.533 29.6842 157.814 28.9824 158.375 28.421C158.993 27.8035 159.723 27.4947 160.565 27.4947C161.463 27.4947 162.193 27.8035 162.754 28.421C163.316 28.9824 163.596 29.6842 163.596 30.5263ZM181.281 30.5263C181.281 31.3684 181 32.0982 180.438 32.7158C179.877 33.2772 179.147 33.5579 178.249 33.5579C177.519 33.5579 176.845 33.2772 176.228 32.7158C175.61 32.0982 175.302 31.3684 175.302 30.5263C175.302 29.6842 175.61 28.9824 176.228 28.421C176.845 27.8035 177.519 27.4947 178.249 27.4947C179.147 27.4947 179.877 27.8035 180.438 28.421C181 28.9824 181.281 29.6842 181.281 30.5263ZM192.986 30.5263C192.986 29.6842 193.267 28.9824 193.828 28.421C194.445 27.8035 195.175 27.4947 196.017 27.4947C196.916 27.4947 197.645 27.8035 198.207 28.421C198.768 28.9824 199.049 29.6842 199.049 30.5263C199.049 31.3684 198.768 32.0982 198.207 32.7158C197.645 33.2772 196.916 33.5579 196.017 33.5579C195.175 33.5579 194.445 33.2772 193.828 32.7158C193.267 32.0982 192.986 31.3684 192.986 30.5263ZM163.596 39.2842C163.596 40.1263 163.316 40.8561 162.754 41.4737C162.193 42.0351 161.463 42.3158 160.565 42.3158C159.723 42.3158 158.993 42.0351 158.375 41.4737C157.814 40.8561 157.533 40.1263 157.533 39.2842C157.533 38.4421 157.814 37.7403 158.375 37.1789C158.993 36.5614 159.723 36.2526 160.565 36.2526C161.463 36.2526 162.193 36.5614 162.754 37.1789C163.316 37.7403 163.596 38.4421 163.596 39.2842ZM192.986 39.2842C192.986 38.4421 193.267 37.7403 193.828 37.1789C194.445 36.5614 195.175 36.2526 196.017 36.2526C196.916 36.2526 197.645 36.5614 198.207 37.1789C198.768 37.7403 199.049 38.4421 199.049 39.2842C199.049 40.1263 198.768 40.8561 198.207 41.4737C197.645 42.0351 196.916 42.3158 196.017 42.3158C195.175 42.3158 194.445 42.0351 193.828 41.4737C193.267 40.8561 192.986 40.1263 192.986 39.2842ZM178.417 39.2842C178.417 38.4421 178.698 37.7403 179.26 37.1789C179.877 36.5614 180.607 36.2526 181.449 36.2526C182.347 36.2526 183.077 36.5614 183.638 37.1789C184.2 37.7403 184.481 38.4421 184.481 39.2842C184.481 40.1263 184.2 40.8561 183.638 41.4737C183.077 42.0351 182.347 42.3158 181.449 42.3158C180.607 42.3158 179.877 42.0351 179.26 41.4737C178.698 40.8561 178.417 40.1263 178.417 39.2842ZM163.596 48.1263C163.596 48.9684 163.316 49.6982 162.754 50.3158C162.193 50.8772 161.463 51.1579 160.565 51.1579C159.723 51.1579 158.993 50.8772 158.375 50.3158C157.814 49.6982 157.533 48.9684 157.533 48.1263C157.533 47.2842 157.814 46.5824 158.375 46.021C158.993 45.4035 159.723 45.0947 160.565 45.0947C161.463 45.0947 162.193 45.4035 162.754 46.021C163.316 46.5824 163.596 47.2842 163.596 48.1263ZM192.986 48.1263C192.986 47.2842 193.267 46.5824 193.828 46.021C194.445 45.4035 195.175 45.0947 196.017 45.0947C196.916 45.0947 197.645 45.4035 198.207 46.021C198.768 46.5824 199.049 47.2842 199.049 48.1263C199.049 48.9684 198.768 49.6982 198.207 50.3158C197.645 50.8772 196.916 51.1579 196.017 51.1579C195.175 51.1579 194.445 50.8772 193.828 50.3158C193.267 49.6982 192.986 48.9684 192.986 48.1263ZM181.533 48.1263C181.533 47.2842 181.814 46.5824 182.375 46.021C182.993 45.4035 183.723 45.0947 184.565 45.0947C185.463 45.0947 186.193 45.4035 186.754 46.021C187.316 46.5824 187.596 47.2842 187.596 48.1263C187.596 48.9684 187.316 49.6982 186.754 50.3158C186.193 50.8772 185.463 51.1579 184.565 51.1579C183.723 51.1579 182.993 50.8772 182.375 50.3158C181.814 49.6982 181.533 48.9684 181.533 48.1263ZM163.596 56.9684C163.596 57.8105 163.316 58.5403 162.754 59.1579C162.193 59.7193 161.463 60 160.565 60C159.723 60 158.993 59.7193 158.375 59.1579C157.814 58.5403 157.533 57.8105 157.533 56.9684C157.533 56.2386 157.814 55.5649 158.375 54.9473C158.993 54.2737 159.723 53.9368 160.565 53.9368C161.463 53.9368 162.193 54.2737 162.754 54.9473C163.316 55.5649 163.596 56.2386 163.596 56.9684ZM192.986 56.9684C192.986 56.2386 193.267 55.5649 193.828 54.9473C194.445 54.2737 195.175 53.9368 196.017 53.9368C196.916 53.9368 197.645 54.2737 198.207 54.9473C198.768 55.5649 199.049 56.2386 199.049 56.9684C199.049 57.8105 198.768 58.5403 198.207 59.1579C197.645 59.7193 196.916 60 196.017 60C195.175 60 194.445 59.7193 193.828 59.1579C193.267 58.5403 192.986 57.8105 192.986 56.9684ZM184.649 56.9684C184.649 56.2386 184.93 55.5649 185.491 54.9473C186.109 54.2737 186.838 53.9368 187.681 53.9368C188.523 53.9368 189.224 54.2737 189.786 54.9473C190.403 55.5649 190.712 56.2386 190.712 56.9684C190.712 57.8105 190.403 58.5403 189.786 59.1579C189.224 59.7193 188.523 60 187.681 60C186.838 60 186.109 59.7193 185.491 59.1579C184.93 58.5403 184.649 57.8105 184.649 56.9684Z" fill="black"/>
<path d="M116.721 4.08419C116.721 4.9263 116.441 5.65612 115.879 6.27367C115.318 6.83507 114.588 7.11577 113.69 7.11577C112.848 7.11577 112.118 6.83507 111.5 6.27367C110.939 5.65612 110.658 4.9263 110.658 4.08419C110.658 3.18595 110.939 2.45612 111.5 1.89472C112.118 1.33332 112.848 1.05261 113.69 1.05261C114.588 1.05261 115.318 1.33332 115.879 1.89472C116.441 2.45612 116.721 3.18595 116.721 4.08419ZM125.479 4.08419C125.479 4.9263 125.199 5.65612 124.637 6.27367C124.076 6.83507 123.374 7.11577 122.532 7.11577C121.634 7.11577 120.904 6.83507 120.342 6.27367C119.781 5.65612 119.5 4.9263 119.5 4.08419C119.5 3.18595 119.781 2.45612 120.342 1.89472C120.904 1.33332 121.634 1.05261 122.532 1.05261C123.374 1.05261 124.076 1.33332 124.637 1.89472C125.199 2.45612 125.479 3.18595 125.479 4.08419ZM134.321 4.08419C134.321 4.9263 134.041 5.65612 133.479 6.27367C132.918 6.83507 132.216 7.11577 131.374 7.11577C130.476 7.11577 129.746 6.83507 129.185 6.27367C128.623 5.65612 128.342 4.9263 128.342 4.08419C128.342 3.18595 128.623 2.45612 129.185 1.89472C129.746 1.33332 130.476 1.05261 131.374 1.05261C132.216 1.05261 132.918 1.33332 133.479 1.89472C134.041 2.45612 134.321 3.18595 134.321 4.08419ZM143.248 4.08419C143.248 4.9263 142.939 5.65612 142.321 6.27367C141.76 6.83507 141.058 7.11577 140.216 7.11577C139.318 7.11577 138.588 6.83507 138.027 6.27367C137.465 5.65612 137.185 4.9263 137.185 4.08419C137.185 3.18595 137.465 2.45612 138.027 1.89472C138.588 1.33332 139.318 1.05261 140.216 1.05261C141.058 1.05261 141.76 1.33332 142.321 1.89472C142.939 2.45612 143.248 3.18595 143.248 4.08419ZM116.721 12.8421C116.721 13.6842 116.441 14.414 115.879 15.0316C115.318 15.593 114.588 15.8737 113.69 15.8737C112.848 15.8737 112.118 15.593 111.5 15.0316C110.939 14.414 110.658 13.6842 110.658 12.8421C110.658 12.0561 110.939 11.3824 111.5 10.821C112.118 10.2035 112.848 9.89472 113.69 9.89472C114.588 9.89472 115.318 10.2035 115.879 10.821C116.441 11.3824 116.721 12.0561 116.721 12.8421ZM116.721 21.6842C116.721 22.5263 116.441 23.2561 115.879 23.8737C115.318 24.4351 114.588 24.7158 113.69 24.7158C112.848 24.7158 112.118 24.4351 111.5 23.8737C110.939 23.2561 110.658 22.5263 110.658 21.6842C110.658 20.8421 110.939 20.1403 111.5 19.5789C112.118 18.9614 112.848 18.6526 113.69 18.6526C114.588 18.6526 115.318 18.9614 115.879 19.5789C116.441 20.1403 116.721 20.8421 116.721 21.6842ZM116.721 30.5263C116.721 31.3684 116.441 32.0982 115.879 32.7158C115.318 33.2772 114.588 33.5579 113.69 33.5579C112.848 33.5579 112.118 33.2772 111.5 32.7158C110.939 32.0982 110.658 31.3684 110.658 30.5263C110.658 29.6842 110.939 28.9824 111.5 28.421C112.118 27.8035 112.848 27.4947 113.69 27.4947C114.588 27.4947 115.318 27.8035 115.879 28.421C116.441 28.9824 116.721 29.6842 116.721 30.5263ZM125.142 30.5263C125.142 31.3684 124.834 32.0982 124.216 32.7158C123.655 33.2772 122.953 33.5579 122.111 33.5579C121.213 33.5579 120.483 33.2772 119.921 32.7158C119.36 32.0982 119.079 31.3684 119.079 30.5263C119.079 29.6842 119.36 28.9824 119.921 28.421C120.483 27.8035 121.213 27.4947 122.111 27.4947C122.953 27.4947 123.655 27.8035 124.216 28.421C124.834 28.9824 125.142 29.6842 125.142 30.5263ZM133.479 30.5263C133.479 31.3684 133.17 32.0982 132.553 32.7158C131.992 33.2772 131.29 33.5579 130.448 33.5579C129.549 33.5579 128.82 33.2772 128.258 32.7158C127.697 32.0982 127.416 31.3684 127.416 30.5263C127.416 29.6842 127.697 28.9824 128.258 28.421C128.82 27.8035 129.549 27.4947 130.448 27.4947C131.29 27.4947 131.992 27.8035 132.553 28.421C133.17 28.9824 133.479 29.6842 133.479 30.5263ZM141.816 30.5263C141.816 31.3684 141.507 32.0982 140.89 32.7158C140.272 33.2772 139.599 33.5579 138.869 33.5579C138.027 33.5579 137.297 33.2772 136.679 32.7158C136.118 32.0982 135.837 31.3684 135.837 30.5263C135.837 29.6842 136.118 28.9824 136.679 28.421C137.297 27.8035 138.027 27.4947 138.869 27.4947C139.599 27.4947 140.272 27.8035 140.89 28.421C141.507 28.9824 141.816 29.6842 141.816 30.5263ZM116.721 39.3684C116.721 40.0982 116.441 40.7719 115.879 41.3895C115.318 42.007 114.588 42.3158 113.69 42.3158C112.848 42.3158 112.118 42.007 111.5 41.3895C110.939 40.7719 110.658 40.0982 110.658 39.3684C110.658 38.5263 110.939 37.8245 111.5 37.2631C112.118 36.6456 112.848 36.3368 113.69 36.3368C114.588 36.3368 115.318 36.6456 115.879 37.2631C116.441 37.8245 116.721 38.5263 116.721 39.3684ZM116.721 48.1263C116.721 48.9684 116.441 49.6982 115.879 50.3158C115.318 50.8772 114.588 51.1579 113.69 51.1579C112.848 51.1579 112.118 50.8772 111.5 50.3158C110.939 49.6982 110.658 48.9684 110.658 48.1263C110.658 47.2842 110.939 46.5824 111.5 46.021C112.118 45.4035 112.848 45.0947 113.69 45.0947C114.588 45.0947 115.318 45.4035 115.879 46.021C116.441 46.5824 116.721 47.2842 116.721 48.1263ZM116.721 56.9684C116.721 57.8105 116.441 58.5403 115.879 59.1579C115.318 59.7193 114.588 60 113.69 60C112.848 60 112.118 59.7193 111.5 59.1579C110.939 58.5403 110.658 57.8105 110.658 56.9684C110.658 56.1263 110.939 55.4245 111.5 54.8631C112.118 54.2456 112.848 53.9368 113.69 53.9368C114.588 53.9368 115.318 54.2456 115.879 54.8631C116.441 55.4245 116.721 56.1263 116.721 56.9684ZM125.479 56.9684C125.479 57.8105 125.199 58.5403 124.637 59.1579C124.076 59.7193 123.374 60 122.532 60C121.634 60 120.904 59.7193 120.342 59.1579C119.781 58.5403 119.5 57.8105 119.5 56.9684C119.5 56.1263 119.781 55.4245 120.342 54.8631C120.904 54.2456 121.634 53.9368 122.532 53.9368C123.374 53.9368 124.076 54.2456 124.637 54.8631C125.199 55.4245 125.479 56.1263 125.479 56.9684ZM134.321 56.9684C134.321 57.8105 134.041 58.5403 133.479 59.1579C132.918 59.7193 132.216 60 131.374 60C130.476 60 129.746 59.7193 129.185 59.1579C128.623 58.5403 128.342 57.8105 128.342 56.9684C128.342 56.1263 128.623 55.4245 129.185 54.8631C129.746 54.2456 130.476 53.9368 131.374 53.9368C132.216 53.9368 132.918 54.2456 133.479 54.8631C134.041 55.4245 134.321 56.1263 134.321 56.9684ZM143.248 56.9684C143.248 57.8105 142.939 58.5403 142.321 59.1579C141.76 59.7193 141.058 60 140.216 60C139.318 60 138.588 59.7193 138.027 59.1579C137.465 58.5403 137.185 57.8105 137.185 56.9684C137.185 56.1263 137.465 55.4245 138.027 54.8631C138.588 54.2456 139.318 53.9368 140.216 53.9368C141.058 53.9368 141.76 54.2456 142.321 54.8631C142.939 55.4245 143.248 56.1263 143.248 56.9684Z" fill="black"/>
<path d="M75.4805 3.83156C75.4805 4.67367 75.1717 5.4035 74.5541 6.02104C73.9927 6.58244 73.291 6.86314 72.4489 6.86314C71.6629 6.86314 70.9612 6.58244 70.3436 6.02104C69.7261 5.4035 69.4173 4.67367 69.4173 3.83156C69.4173 2.98946 69.7261 2.28771 70.3436 1.7263C70.9612 1.10876 71.6629 0.799988 72.4489 0.799988C73.291 0.799988 73.9927 1.10876 74.5541 1.7263C75.1717 2.28771 75.4805 2.98946 75.4805 3.83156ZM66.6384 4.0842C66.6384 4.9263 66.3296 5.65613 65.712 6.27367C65.1506 6.83508 64.4489 7.11578 63.6068 7.11578C62.8208 7.11578 62.1191 6.83508 61.5015 6.27367C60.884 5.65613 60.5752 4.9263 60.5752 4.0842C60.5752 3.18595 60.884 2.45613 61.5015 1.89472C62.1191 1.33332 62.8208 1.05262 63.6068 1.05262C64.4489 1.05262 65.1506 1.33332 65.712 1.89472C66.3296 2.45613 66.6384 3.18595 66.6384 4.0842ZM84.4068 4.75788C84.4068 5.59999 84.098 6.32981 83.4805 6.94735C82.9191 7.50876 82.2173 7.78946 81.3752 7.78946C80.5892 7.78946 79.8875 7.50876 79.2699 6.94735C78.6524 6.32981 78.3436 5.59999 78.3436 4.75788C78.3436 3.97192 78.6524 3.27016 79.2699 2.65262C79.8875 2.03507 80.5892 1.7263 81.3752 1.7263C82.2173 1.7263 82.9191 2.03507 83.4805 2.65262C84.098 3.27016 84.4068 3.97192 84.4068 4.75788ZM92.3226 8.8842C92.3226 9.78244 92.0419 10.5123 91.4805 11.0737C90.9191 11.6351 90.1892 11.9158 89.291 11.9158C88.4489 11.9158 87.7191 11.6351 87.1015 11.0737C86.5401 10.5123 86.2594 9.78244 86.2594 8.8842C86.2594 8.04209 86.5401 7.34034 87.1015 6.77893C87.7191 6.16139 88.4489 5.85262 89.291 5.85262C90.1892 5.85262 90.9191 6.16139 91.4805 6.77893C92.0419 7.34034 92.3226 8.04209 92.3226 8.8842ZM66.6384 12.9263C66.6384 13.7684 66.3296 14.4982 65.712 15.1158C65.1506 15.6772 64.4489 15.9579 63.6068 15.9579C62.8208 15.9579 62.1191 15.6772 61.5015 15.1158C60.884 14.4982 60.5752 13.7684 60.5752 12.9263C60.5752 12.0281 60.884 11.2982 61.5015 10.7368C62.1191 10.1754 62.8208 9.89472 63.6068 9.89472C64.4489 9.89472 65.1506 10.1754 65.712 10.7368C66.3296 11.2982 66.6384 12.0281 66.6384 12.9263ZM96.7857 16.8842C96.7857 17.7263 96.4769 18.4561 95.8594 19.0737C95.298 19.6351 94.5962 19.9158 93.7541 19.9158C92.8559 19.9158 92.1261 19.6351 91.5647 19.0737C91.0033 18.4561 90.7226 17.7263 90.7226 16.8842C90.7226 15.986 91.0033 15.2561 91.5647 14.6947C92.1261 14.1333 92.8559 13.8526 93.7541 13.8526C94.5962 13.8526 95.298 14.1333 95.8594 14.6947C96.4769 15.2561 96.7857 15.986 96.7857 16.8842ZM66.6384 21.7684C66.6384 22.6105 66.3296 23.3403 65.712 23.9579C65.1506 24.5193 64.4489 24.8 63.6068 24.8C62.8208 24.8 62.1191 24.5193 61.5015 23.9579C60.884 23.3403 60.5752 22.6105 60.5752 21.7684C60.5752 20.8702 60.884 20.1403 61.5015 19.5789C62.1191 19.0175 62.8208 18.7368 63.6068 18.7368C64.4489 18.7368 65.1506 19.0175 65.712 19.5789C66.3296 20.1403 66.6384 20.8702 66.6384 21.7684ZM96.7857 26.1474C96.7857 27.0456 96.4769 27.7754 95.8594 28.3368C95.298 28.8982 94.5962 29.1789 93.7541 29.1789C92.8559 29.1789 92.1261 28.8982 91.5647 28.3368C91.0033 27.7754 90.7226 27.0456 90.7226 26.1474C90.7226 25.3053 91.0033 24.6035 91.5647 24.0421C92.1261 23.4245 92.8559 23.1158 93.7541 23.1158C94.5962 23.1158 95.298 23.4245 95.8594 24.0421C96.4769 24.6035 96.7857 25.3053 96.7857 26.1474ZM66.6384 30.5263C66.6384 31.3684 66.3296 32.0982 65.712 32.7158C65.1506 33.2772 64.4489 33.5579 63.6068 33.5579C62.8208 33.5579 62.1191 33.2772 61.5015 32.7158C60.884 32.0982 60.5752 31.3684 60.5752 30.5263C60.5752 29.6842 60.884 28.9824 61.5015 28.421C62.1191 27.8035 62.8208 27.4947 63.6068 27.4947C64.4489 27.4947 65.1506 27.8035 65.712 28.421C66.3296 28.9824 66.6384 29.6842 66.6384 30.5263ZM92.3226 34.5684C92.3226 35.4105 92.0419 36.1403 91.4805 36.7579C90.9191 37.3193 90.1892 37.6 89.291 37.6C88.4489 37.6 87.7191 37.3193 87.1015 36.7579C86.5401 36.1403 86.2594 35.4105 86.2594 34.5684C86.2594 33.6702 86.5401 32.9403 87.1015 32.3789C87.7191 31.8175 88.4489 31.5368 89.291 31.5368C90.1892 31.5368 90.9191 31.8175 91.4805 32.3789C92.0419 32.9403 92.3226 33.6702 92.3226 34.5684ZM84.3226 38.5263C84.3226 39.4245 84.0138 40.1544 83.3962 40.7158C82.8348 41.2772 82.1331 41.5579 81.291 41.5579C80.505 41.5579 79.8033 41.2772 79.1857 40.7158C78.5682 40.1544 78.2594 39.4245 78.2594 38.5263C78.2594 37.6842 78.5682 36.9824 79.1857 36.421C79.8033 35.8035 80.505 35.4947 81.291 35.4947C82.1331 35.4947 82.8348 35.8035 83.3962 36.421C84.0138 36.9824 84.3226 37.6842 84.3226 38.5263ZM66.6384 39.2842C66.6384 40.1263 66.3296 40.8561 65.712 41.4737C65.1506 42.0351 64.4489 42.3158 63.6068 42.3158C62.8208 42.3158 62.1191 42.0351 61.5015 41.4737C60.884 40.8561 60.5752 40.1263 60.5752 39.2842C60.5752 38.4421 60.884 37.7403 61.5015 37.1789C62.1191 36.5614 62.8208 36.2526 63.6068 36.2526C64.4489 36.2526 65.1506 36.5614 65.712 37.1789C66.3296 37.7403 66.6384 38.4421 66.6384 39.2842ZM75.4805 39.5368C75.4805 40.3789 75.1717 41.1088 74.5541 41.7263C73.9927 42.2877 73.291 42.5684 72.4489 42.5684C71.6629 42.5684 70.9612 42.2877 70.3436 41.7263C69.7261 41.1088 69.4173 40.3789 69.4173 39.5368C69.4173 38.6386 69.7261 37.9088 70.3436 37.3474C70.9612 36.786 71.6629 36.5052 72.4489 36.5052C73.291 36.5052 73.9927 36.786 74.5541 37.3474C75.1717 37.9088 75.4805 38.6386 75.4805 39.5368ZM66.6384 48.1263C66.6384 48.9684 66.3296 49.6982 65.712 50.3158C65.1506 50.8772 64.4489 51.1579 63.6068 51.1579C62.8208 51.1579 62.1191 50.8772 61.5015 50.3158C60.884 49.6982 60.5752 48.9684 60.5752 48.1263C60.5752 47.2842 60.884 46.5824 61.5015 46.021C62.1191 45.4035 62.8208 45.0947 63.6068 45.0947C64.4489 45.0947 65.1506 45.4035 65.712 46.021C66.3296 46.5824 66.6384 47.2842 66.6384 48.1263ZM66.6384 56.9684C66.6384 57.8105 66.3296 58.5403 65.712 59.1579C65.1506 59.7193 64.4489 60 63.6068 60C62.8208 60 62.1191 59.7193 61.5015 59.1579C60.884 58.5403 60.5752 57.8105 60.5752 56.9684C60.5752 56.1263 60.884 55.4246 61.5015 54.8631C62.1191 54.2456 62.8208 53.9368 63.6068 53.9368C64.4489 53.9368 65.1506 54.2456 65.712 54.8631C66.3296 55.4246 66.6384 56.1263 66.6384 56.9684Z" fill="black"/>
<path d="M26.5787 3.24209C26.5787 4.14033 26.298 4.87016 25.7366 5.43157C25.1752 5.99297 24.4454 6.27367 23.5472 6.27367C22.7051 6.27367 21.9752 5.99297 21.3577 5.43157C20.7963 4.87016 20.5156 4.14033 20.5156 3.24209C20.5156 2.39999 20.7963 1.69823 21.3577 1.13682C21.9752 0.519281 22.7051 0.21051 23.5472 0.21051C24.4454 0.21051 25.1752 0.519281 25.7366 1.13682C26.298 1.69823 26.5787 2.39999 26.5787 3.24209ZM17.2314 6.18946C17.2314 7.0877 16.9226 7.81753 16.3051 8.37893C15.7437 8.94033 15.0419 9.22104 14.1998 9.22104C13.3015 9.22104 12.5717 8.94033 12.0103 8.37893C11.4489 7.81753 11.1682 7.0877 11.1682 6.18946C11.1682 5.34735 11.4489 4.6456 12.0103 4.08419C12.5717 3.46665 13.3015 3.15788 14.1998 3.15788C15.0419 3.15788 15.7437 3.46665 16.3051 4.08419C16.9226 4.6456 17.2314 5.34735 17.2314 6.18946ZM29.9472 6.18946C29.9472 5.34735 30.2279 4.6456 30.7893 4.08419C31.4068 3.46665 32.1366 3.15788 32.9787 3.15788C33.877 3.15788 34.6068 3.46665 35.1682 4.08419C35.7296 4.6456 36.0103 5.34735 36.0103 6.18946C36.0103 7.0877 35.7296 7.81753 35.1682 8.37893C34.6068 8.94033 33.877 9.22104 32.9787 9.22104C32.1366 9.22104 31.4068 8.94033 30.7893 8.37893C30.2279 7.81753 29.9472 7.0877 29.9472 6.18946ZM10.663 12.9263C10.663 13.7684 10.3542 14.4982 9.73664 15.1158C9.17523 15.6772 8.47348 15.9579 7.63137 15.9579C6.73313 15.9579 6.0033 15.6772 5.4419 15.1158C4.8805 14.4982 4.59979 13.7684 4.59979 12.9263C4.59979 12.1403 4.8805 11.4667 5.4419 10.9053C6.0033 10.2877 6.73313 9.97893 7.63137 9.97893C8.47348 9.97893 9.17523 10.2877 9.73664 10.9053C10.3542 11.4667 10.663 12.1403 10.663 12.9263ZM36.5156 12.9263C36.5156 12.1403 36.7963 11.4667 37.3577 10.9053C37.9752 10.2877 38.7051 9.97893 39.5472 9.97893C40.3893 9.97893 41.091 10.2877 41.6524 10.9053C42.27 11.4667 42.5787 12.1403 42.5787 12.9263C42.5787 13.7684 42.27 14.4982 41.6524 15.1158C41.091 15.6772 40.3893 15.9579 39.5472 15.9579C38.7051 15.9579 37.9752 15.6772 37.3577 15.1158C36.7963 14.4982 36.5156 13.7684 36.5156 12.9263ZM7.46295 21.2631C7.46295 22.1614 7.15418 22.8912 6.53664 23.4526C5.97523 24.014 5.27348 24.2947 4.43137 24.2947C3.53313 24.2947 2.8033 24.014 2.2419 23.4526C1.6805 22.8912 1.3998 22.1614 1.3998 21.2631C1.3998 20.421 1.6805 19.7193 2.2419 19.1579C2.8033 18.5403 3.53313 18.2316 4.43137 18.2316C5.27348 18.2316 5.97523 18.5403 6.53664 19.1579C7.15418 19.7193 7.46295 20.421 7.46295 21.2631ZM39.7156 21.2631C39.7156 20.421 39.9963 19.7193 40.5577 19.1579C41.1752 18.5403 41.9051 18.2316 42.7472 18.2316C43.5893 18.2316 44.291 18.5403 44.8524 19.1579C45.47 19.7193 45.7787 20.421 45.7787 21.2631C45.7787 22.1614 45.47 22.8912 44.8524 23.4526C44.291 24.014 43.5893 24.2947 42.7472 24.2947C41.9051 24.2947 41.1752 24.014 40.5577 23.4526C39.9963 22.8912 39.7156 22.1614 39.7156 21.2631ZM6.95769 30.5263C6.95769 31.3684 6.64892 32.0982 6.03137 32.7158C5.46997 33.2772 4.76822 33.5579 3.92611 33.5579C3.08401 33.5579 2.35418 33.2772 1.73664 32.7158C1.17523 32.0982 0.894531 31.3684 0.894531 30.5263C0.894531 29.6842 1.17523 28.9824 1.73664 28.421C2.35418 27.8035 3.08401 27.4947 3.92611 27.4947C4.76822 27.4947 5.46997 27.8035 6.03137 28.421C6.64892 28.9824 6.95769 29.6842 6.95769 30.5263ZM40.2208 30.5263C40.2208 29.6842 40.5015 28.9824 41.063 28.421C41.6244 27.8035 42.3542 27.4947 43.2524 27.4947C44.0945 27.4947 44.7963 27.8035 45.3577 28.421C45.9752 28.9824 46.284 29.6842 46.284 30.5263C46.284 31.3684 45.9752 32.0982 45.3577 32.7158C44.7963 33.2772 44.0945 33.5579 43.2524 33.5579C42.3542 33.5579 41.6244 33.2772 41.063 32.7158C40.5015 32.0982 40.2208 31.3684 40.2208 30.5263ZM7.46295 39.7895C7.46295 40.6316 7.15418 41.3614 6.53664 41.9789C5.97523 42.5403 5.27348 42.821 4.43137 42.821C3.53313 42.821 2.8033 42.5403 2.2419 41.9789C1.6805 41.3614 1.3998 40.6316 1.3998 39.7895C1.3998 38.8912 1.6805 38.1614 2.2419 37.6C2.8033 37.0386 3.53313 36.7579 4.43137 36.7579C5.27348 36.7579 5.97523 37.0386 6.53664 37.6C7.15418 38.1614 7.46295 38.8912 7.46295 39.7895ZM39.7156 39.7895C39.7156 38.8912 39.9963 38.1614 40.5577 37.6C41.1752 37.0386 41.9051 36.7579 42.7472 36.7579C43.5893 36.7579 44.291 37.0386 44.8524 37.6C45.47 38.1614 45.7787 38.8912 45.7787 39.7895C45.7787 40.6316 45.47 41.3614 44.8524 41.9789C44.291 42.5403 43.5893 42.821 42.7472 42.821C41.9051 42.821 41.1752 42.5403 40.5577 41.9789C39.9963 41.3614 39.7156 40.6316 39.7156 39.7895ZM10.663 48.1263C10.663 48.9684 10.3542 49.6982 9.73664 50.3158C9.17523 50.8772 8.47348 51.1579 7.63137 51.1579C6.73313 51.1579 6.0033 50.8772 5.4419 50.3158C4.8805 49.6982 4.59979 48.9684 4.59979 48.1263C4.59979 47.2842 4.8805 46.5824 5.4419 46.021C6.0033 45.4035 6.73313 45.0947 7.63137 45.0947C8.47348 45.0947 9.17523 45.4035 9.73664 46.021C10.3542 46.5824 10.663 47.2842 10.663 48.1263ZM36.5156 48.1263C36.5156 47.2842 36.7963 46.5824 37.3577 46.021C37.9752 45.4035 38.7051 45.0947 39.5472 45.0947C40.3893 45.0947 41.091 45.4035 41.6524 46.021C42.27 46.5824 42.5787 47.2842 42.5787 48.1263C42.5787 48.9684 42.27 49.6982 41.6524 50.3158C41.091 50.8772 40.3893 51.1579 39.5472 51.1579C38.7051 51.1579 37.9752 50.8772 37.3577 50.3158C36.7963 49.6982 36.5156 48.9684 36.5156 48.1263ZM17.2314 55.2842C17.2314 56.1263 16.9226 56.8561 16.3051 57.4737C15.7437 58.0351 15.0419 58.3158 14.1998 58.3158C13.3015 58.3158 12.5717 58.0351 12.0103 57.4737C11.4489 56.8561 11.1682 56.1263 11.1682 55.2842C11.1682 54.3859 11.4489 53.6561 12.0103 53.0947C12.5717 52.5333 13.3015 52.2526 14.1998 52.2526C15.0419 52.2526 15.7437 52.5333 16.3051 53.0947C16.9226 53.6561 17.2314 54.3859 17.2314 55.2842ZM29.9472 55.2842C29.9472 54.3859 30.2279 53.6561 30.7893 53.0947C31.4068 52.5333 32.1366 52.2526 32.9787 52.2526C33.877 52.2526 34.6068 52.5333 35.1682 53.0947C35.7296 53.6561 36.0103 54.3859 36.0103 55.2842C36.0103 56.1263 35.7296 56.8561 35.1682 57.4737C34.6068 58.0351 33.877 58.3158 32.9787 58.3158C32.1366 58.3158 31.4068 58.0351 30.7893 57.4737C30.2279 56.8561 29.9472 56.1263 29.9472 55.2842ZM26.5787 57.8105C26.5787 58.6526 26.298 59.3824 25.7366 60C25.1752 60.5614 24.4454 60.8421 23.5472 60.8421C22.7051 60.8421 21.9752 60.5614 21.3577 60C20.7963 59.3824 20.5156 58.6526 20.5156 57.8105C20.5156 56.9123 20.7963 56.1824 21.3577 55.621C21.9752 55.0596 22.7051 54.7789 23.5472 54.7789C24.4454 54.7789 25.1752 55.0596 25.7366 55.621C26.298 56.1824 26.5787 56.9123 26.5787 57.8105Z" fill="black"/>
</svg>
